<svg width="52" height="52" viewBox="0 0 52 52" fill="none" xmlns="http://www.w3.org/2000/svg">
<circle cx="25.9682" cy="25.9682" r="25.2182" stroke="#9F938B" stroke-width="1.5"/>
<path d="M29.5431 14.3961C29.5431 14.1499 29.4946 13.9062 29.4004 13.6787C29.3062 13.4513 29.1681 13.2446 28.994 13.0705C28.8199 12.8964 28.6132 12.7583 28.3858 12.6641C28.1583 12.5699 27.9146 12.5214 27.6684 12.5214H18.7194C18.2282 12.5244 17.7579 12.7204 17.4099 13.067C17.0619 13.4136 16.8641 13.8831 16.859 14.3742C16.854 14.8654 17.0423 15.3388 17.3831 15.6924C17.724 16.0461 18.1902 16.2516 18.6812 16.2646V35.2342C18.6802 36.1452 18.9553 37.0352 19.4701 37.7868C19.9849 38.5384 20.7153 39.1164 21.5651 39.4447C22.4149 39.7731 23.3442 39.8362 24.2306 39.6259C25.117 39.4157 25.9189 38.9418 26.5307 38.2668C27.2206 38.955 28.0942 39.4298 29.047 39.6343C29.4031 39.7084 29.766 39.7459 30.1298 39.746C30.8027 39.7475 31.4692 39.6162 32.0913 39.3597C32.7133 39.1031 33.2787 38.7264 33.7549 38.2511C34.2312 37.7757 34.609 37.2111 34.8667 36.5895C35.1244 35.968 35.257 35.3017 35.2568 34.6288C35.2295 33.5932 34.9142 32.5858 34.3462 31.7195L30.6728 24.8924C30.6219 24.7944 30.5446 24.7125 30.4496 24.656C30.3547 24.5995 30.2458 24.5706 30.1353 24.5727C30.0252 24.5731 29.9172 24.6035 29.8229 24.6607C29.7287 24.7178 29.6517 24.7995 29.6004 24.8969L27.7076 28.4867V16.2663C28.1972 16.2561 28.6633 16.0547 29.0064 15.7052C29.3494 15.3557 29.542 14.8858 29.5431 14.3961ZM23.1944 38.5323C22.32 38.5313 21.4817 38.1835 20.8634 37.5652C20.2451 36.9469 19.8973 36.1086 19.8963 35.2342V16.2695H26.4925V30.7912C26.4925 30.7912 25.8221 32.0903 25.6971 32.36V22.188C25.6971 22.0269 25.6331 21.8723 25.5192 21.7584C25.4053 21.6445 25.2507 21.5804 25.0896 21.5804H21.2996C21.2198 21.5804 21.1407 21.5961 21.067 21.6266C20.9933 21.6571 20.9263 21.7019 20.8699 21.7583C20.8134 21.8147 20.7687 21.8817 20.7382 21.9554C20.7076 22.0292 20.692 22.1082 20.692 22.188V34.9805C20.691 35.522 20.8659 36.0491 21.1904 36.4827C21.5148 36.9162 21.9713 37.2327 22.4911 37.3844C23.0109 37.5362 23.5659 37.5151 24.0727 37.3242C24.5794 37.1333 25.0105 36.7831 25.301 36.3261C25.4186 36.6659 25.5729 36.9919 25.7614 37.2982C25.4532 37.6829 25.0625 37.9936 24.6182 38.2072C24.174 38.4208 23.6874 38.5319 23.1944 38.5323ZM24.4821 22.7969V34.9805C24.4849 35.1513 24.4536 35.321 24.3902 35.4797C24.3267 35.6383 24.2324 35.7828 24.1125 35.9046C23.9927 36.0264 23.8498 36.1232 23.6922 36.1892C23.5346 36.2552 23.3655 36.2892 23.1946 36.2892C23.0237 36.2892 22.8545 36.2552 22.6969 36.1892C22.5393 36.1232 22.3965 36.0264 22.2766 35.9046C22.1568 35.7828 22.0624 35.6383 21.999 35.4797C21.9355 35.321 21.9043 35.1513 21.9071 34.9805V22.7969H24.4821ZM30.1433 26.4727L33.2828 32.3076C33.2869 32.316 33.2916 32.3241 33.2967 32.3319C33.7526 33.0139 34.0105 33.809 34.0417 34.6288C34.0426 35.2094 33.9135 35.7828 33.664 36.3071C33.4144 36.8313 33.0507 37.2931 32.5996 37.6585C32.142 38.0275 31.6077 38.2896 31.0358 38.4256C30.4639 38.5615 29.8689 38.568 29.2942 38.4445C28.5862 38.2912 27.9352 37.9431 27.4147 37.4393C26.8942 36.9355 26.525 36.2962 26.3488 35.5936C26.0495 34.3326 26.5918 33.2588 27.1671 32.1219L30.1433 26.4727ZM27.6694 15.0544H18.7194C18.6296 15.0598 18.5396 15.0468 18.455 15.0162C18.3703 14.9856 18.2929 14.938 18.2273 14.8763C18.1618 14.8146 18.1096 14.7402 18.0739 14.6576C18.0382 14.575 18.0198 14.486 18.0198 14.396C18.0198 14.306 18.0382 14.2169 18.0739 14.1343C18.1096 14.0517 18.1618 13.9773 18.2273 13.9156C18.2929 13.8539 18.3703 13.8063 18.455 13.7757C18.5396 13.7451 18.6296 13.7321 18.7194 13.7376H27.6694C27.7592 13.7321 27.8492 13.7451 27.9339 13.7757C28.0185 13.8063 28.0959 13.8539 28.1615 13.9156C28.227 13.9773 28.2792 14.0517 28.3149 14.1343C28.3506 14.2169 28.369 14.306 28.369 14.396C28.369 14.486 28.3506 14.575 28.3149 14.6576C28.2792 14.7402 28.227 14.8146 28.1615 14.8763C28.0959 14.938 28.0185 14.9856 27.9339 15.0162C27.8492 15.0468 27.7592 15.0598 27.6694 15.0544Z" fill="#9F938B"/>
</svg>
