<svg width="22" height="22" viewBox="0 0 22 22" fill="none" xmlns="http://www.w3.org/2000/svg">
<path d="M21 21L15.2857 15.2857M9.57143 18.1429C8.44581 18.1429 7.33122 17.9212 6.29128 17.4904C5.25135 17.0596 4.30644 16.4283 3.51051 15.6323C2.71458 14.8364 2.08322 13.8915 1.65246 12.8516C1.22171 11.8116 1 10.697 1 9.57143C1 8.44581 1.22171 7.33122 1.65246 6.29128C2.08322 5.25135 2.71458 4.30644 3.51051 3.51051C4.30644 2.71458 5.25135 2.08322 6.29128 1.65246C7.33122 1.22171 8.44581 1 9.57143 1C11.8447 1 14.0249 1.90306 15.6323 3.51051C17.2398 5.11797 18.1429 7.29814 18.1429 9.57143C18.1429 11.8447 17.2398 14.0249 15.6323 15.6323C14.0249 17.2398 11.8447 18.1429 9.57143 18.1429Z" stroke="black" stroke-width="1.5"/>
</svg>
